<svg id="Layer_1" data-name="Layer 1" xmlns="http://www.w3.org/2000/svg" viewBox="0 0 24 24"><defs><style>.cls-1{fill:#fff;}</style></defs><path class="cls-1" d="M0,23.27v-.7C0,19,0,15.4,0,11.82a11.52,11.52,0,0,1,3.7-8.51A11.51,11.51,0,0,1,9.3.34,11,11,0,0,1,12.1.09h1a11,11,0,0,1,4.1,1,12.2,12.2,0,0,1,3.93,2.86s0,0,.07.1l-3.5,3.32a7.33,7.33,0,0,0-2.25-1.73,7.2,7.2,0,0,0-3.63-.72A6.91,6.91,0,0,0,5,11.73C5,13.87,5,16,5,18.14a.45.45,0,0,1-.1.3L.17,23.21s0,.07-.06.11Z"/><path class="cls-1" d="M4.65,21.38l.81-.77L8.2,17.9c.12-.13.2-.15.37,0a6.2,6.2,0,0,0,2.64.9,6.91,6.91,0,0,0,7.12-4.45l.07-.22H9.51l.19-.2c1.08-1.09,2.19-2.17,3.25-3.29A1.58,1.58,0,0,1,14.22,10c3.16,0,6.33,0,9.49,0h.14A12,12,0,0,1,4.65,21.38Z"/></svg>